<svg width="31" height="30" viewBox="0 0 31 30" fill="none" xmlns="http://www.w3.org/2000/svg">
<path d="M14.0937 24.1252L5.84375 15.8752C5.71875 15.7502 5.63 15.6148 5.5775 15.469C5.52583 15.3231 5.5 15.1669 5.5 15.0002C5.5 14.8336 5.52583 14.6773 5.5775 14.5315C5.63 14.3856 5.71875 14.2502 5.84375 14.1252L14.0937 5.87522C14.3229 5.64606 14.6092 5.52606 14.9525 5.51523C15.2967 5.50523 15.5937 5.62522 15.8437 5.87522C16.0937 6.10439 16.2242 6.39064 16.235 6.73398C16.245 7.07814 16.125 7.37523 15.875 7.62523L9.75 13.7502H23.7188C24.0729 13.7502 24.37 13.8698 24.61 14.109C24.8492 14.349 24.9688 14.6461 24.9688 15.0002C24.9688 15.3544 24.8492 15.6511 24.61 15.8902C24.37 16.1302 24.0729 16.2502 23.7188 16.2502H9.75L15.875 22.3752C16.1042 22.6044 16.2242 22.8961 16.235 23.2502C16.245 23.6044 16.125 23.8961 15.875 24.1252C15.6458 24.3752 15.3542 24.5002 15 24.5002C14.6458 24.5002 14.3437 24.3752 14.0937 24.1252Z" fill="#8E4585"/>
</svg>
