<svg width="69" height="24" viewBox="0 0 69 24" fill="none" xmlns="http://www.w3.org/2000/svg">
<path d="M53.632 23.04C48.232 23.04 44.668 18.792 44.668 12.312C44.668 4.68 49.636 0 57.772 0C61.264 0 65.728 0.792001 67.852 1.836C68.572 2.124 68.824 2.448 68.824 3.168V21.348C68.824 22.212 68.356 22.68 67.456 22.68H61.84C60.976 22.68 60.508 22.212 60.508 21.348V18.828C59.104 21.636 56.8 23.04 53.632 23.04ZM52.948 11.412C52.948 14.22 54.496 15.984 56.98 15.984C58.384 15.984 59.572 15.408 60.508 14.22V7.164C59.536 6.84 58.456 6.66 57.556 6.66C54.676 6.66 52.948 8.424 52.948 11.412Z" fill="#FF6F61"/>
<path d="M29.1797 22.6801C28.3157 22.6801 27.8477 22.2121 27.8477 21.3481V1.69213C27.8477 0.828131 28.3157 0.360133 29.1797 0.360133H34.7957C35.6597 0.360133 36.1277 0.828131 36.1277 1.69213V5.50813C36.9917 2.52013 39.2597 0.0361328 43.1477 0.0361328C44.0117 0.0361328 44.5157 0.324131 44.5517 1.26013L44.8037 6.33613C44.8397 7.16413 44.4077 7.77613 43.6157 7.77613C39.9797 7.77613 37.4957 8.85613 36.1277 10.5841V21.3481C36.1277 22.2121 35.6597 22.6801 34.7957 22.6801H29.1797Z" fill="#FF6F61"/>
<path d="M12.528 23.04C5.148 23.04 0 18.144 0 11.232C0 4.428 4.932 0 12.528 0C20.124 0 25.056 4.428 25.056 11.232C25.056 18.144 19.908 23.04 12.528 23.04ZM12.528 16.38C15.084 16.38 16.74 14.292 16.74 11.268C16.74 8.352 15.192 6.66 12.528 6.66C9.864 6.66 8.316 8.352 8.316 11.268C8.316 14.328 9.972 16.38 12.528 16.38Z" fill="#FF6F61"/>
</svg>
